<svg xmlns="http://www.w3.org/2000/svg" xmlns:xlink="http://www.w3.org/1999/xlink" version="1.1" width="1000" height="1000" viewBox="0 0 1000 1000" xml:space="preserve">
<desc>Created with Fabric.js 3.5.0</desc>
<defs>
</defs>
<rect x="0" y="0" width="100%" height="100%" fill="#ffffff"/>
<g transform="matrix(1 0 0 1 0 0)" id="860910">
<g style="" vector-effect="non-scaling-stroke">
</g>
</g>
<g transform="matrix(1 0 0 1 500 485.58)" style="" id="397949">
		
<path xml:space="preserve" font-family="Quicksand" font-size="72" font-weight="bold" style="stroke: none; stroke-width: 0; stroke-dasharray: none; stroke-linecap: butt; stroke-dashoffset: 0; stroke-linejoin: miter; stroke-miterlimit: 4; is-custom-font: none; font-file-url: none; fill: rgb(57,81,220); fill-rule: nonzero; opacity: 1; white-space: pre;" d="M-151.16-16.62L-151.16-16.62Q-149.29-16.62-148.07-15.40Q-146.84-14.17-146.84-12.23L-146.84-12.23L-146.84 18.23Q-146.84 20.10-148.07 21.36Q-149.29 22.62-151.16 22.62L-151.16 22.62Q-153.04 22.62-154.26 21.36Q-155.48 20.10-155.48 18.23L-155.48 18.23L-155.48 14.70L-153.90 15.35Q-153.90 16.28-154.91 17.61Q-155.92 18.95-157.64 20.24Q-159.37 21.54-161.71 22.44Q-164.05 23.34-166.79 23.34L-166.79 23.34Q-171.76 23.34-175.79 20.78Q-179.82 18.23-182.16 13.73Q-184.50 9.23-184.50 3.39L-184.50 3.39Q-184.50-2.51-182.16-7.01Q-179.82-11.51-175.86-14.07Q-171.90-16.62-167.08-16.62L-167.08-16.62Q-163.98-16.62-161.39-15.69Q-158.80-14.75-156.89-13.31Q-154.98-11.87-153.94-10.39Q-152.89-8.92-152.89-7.91L-152.89-7.91L-155.48-6.97L-155.48-12.23Q-155.48-14.10-154.26-15.36Q-153.04-16.62-151.16-16.62ZM-165.71 15.42L-165.71 15.42Q-162.54 15.42-160.16 13.83Q-157.79 12.25-156.46 9.51Q-155.12 6.78-155.12 3.39L-155.12 3.39Q-155.12-0.06-156.46-2.80Q-157.79-5.53-160.16-7.12Q-162.54-8.70-165.71-8.70L-165.71-8.70Q-168.80-8.70-171.18-7.12Q-173.56-5.53-174.89-2.80Q-176.22-0.06-176.22 3.39L-176.22 3.39Q-176.22 6.78-174.89 9.51Q-173.56 12.25-171.18 13.83Q-168.80 15.42-165.71 15.42ZM-116.89-16.62L-116.89-16.62Q-111.56-16.62-108.79-14.39Q-106.02-12.16-104.98-8.45Q-103.93-4.74-103.93-0.21L-103.93-0.21L-103.93 18.23Q-103.93 20.10-105.16 21.36Q-106.38 22.62-108.25 22.62L-108.25 22.62Q-110.12 22.62-111.35 21.36Q-112.57 20.10-112.57 18.23L-112.57 18.23L-112.57-0.21Q-112.57-2.58-113.18-4.49Q-113.80-6.40-115.38-7.55Q-116.96-8.70-119.92-8.70L-119.92-8.70Q-122.80-8.70-124.78-7.55Q-126.76-6.40-127.80-4.49Q-128.84-2.58-128.84-0.21L-128.84-0.21L-128.84 18.23Q-128.84 20.10-130.07 21.36Q-131.29 22.62-133.16 22.62L-133.16 22.62Q-135.04 22.62-136.26 21.36Q-137.48 20.10-137.48 18.23L-137.48 18.23L-137.48-11.51Q-137.48-13.38-136.26-14.64Q-135.04-15.90-133.16-15.90L-133.16-15.90Q-131.29-15.90-130.07-14.64Q-128.84-13.38-128.84-11.51L-128.84-11.51L-128.84-8.41L-129.92-8.63Q-129.28-9.85-128.05-11.26Q-126.83-12.66-125.17-13.89Q-123.52-15.11-121.43-15.87Q-119.34-16.62-116.89-16.62ZM-63.40-16.62L-63.40-16.62Q-61.52-16.62-60.30-15.40Q-59.08-14.17-59.08-12.23L-59.08-12.23L-59.08 18.23Q-59.08 20.10-60.30 21.36Q-61.52 22.62-63.40 22.62L-63.40 22.62Q-65.27 22.62-66.49 21.36Q-67.72 20.10-67.72 18.23L-67.72 18.23L-67.72 14.70L-66.13 15.35Q-66.13 16.28-67.14 17.61Q-68.15 18.95-69.88 20.24Q-71.60 21.54-73.94 22.44Q-76.28 23.34-79.02 23.34L-79.02 23.34Q-83.99 23.34-88.02 20.78Q-92.05 18.23-94.39 13.73Q-96.73 9.23-96.73 3.39L-96.73 3.39Q-96.73-2.51-94.39-7.01Q-92.05-11.51-88.09-14.07Q-84.13-16.62-79.31-16.62L-79.31-16.62Q-76.21-16.62-73.62-15.69Q-71.03-14.75-69.12-13.31Q-67.21-11.87-66.17-10.39Q-65.12-8.92-65.12-7.91L-65.12-7.91L-67.72-6.97L-67.72-12.23Q-67.72-14.10-66.49-15.36Q-65.27-16.62-63.40-16.62ZM-77.94 15.42L-77.94 15.42Q-74.77 15.42-72.40 13.83Q-70.02 12.25-68.69 9.51Q-67.36 6.78-67.36 3.39L-67.36 3.39Q-67.36-0.06-68.69-2.80Q-70.02-5.53-72.40-7.12Q-74.77-8.70-77.94-8.70L-77.94-8.70Q-81.04-8.70-83.41-7.12Q-85.79-5.53-87.12-2.80Q-88.45-0.06-88.45 3.39L-88.45 3.39Q-88.45 6.78-87.12 9.51Q-85.79 12.25-83.41 13.83Q-81.04 15.42-77.94 15.42ZM-51.95 16.64L-51.95 16.64Q-52.67 15.63-52.60 14.05Q-52.52 12.47-50.72 11.31L-50.72 11.31Q-49.57 10.59-48.28 10.70Q-46.98 10.81-45.76 12.03L-45.76 12.03Q-43.67 14.12-41.36 15.27Q-39.06 16.43-35.60 16.43L-35.60 16.43Q-34.52 16.35-33.23 16.10Q-31.93 15.85-30.96 14.95Q-29.99 14.05-29.99 12.18L-29.99 12.18Q-29.99 10.59-31.07 9.66Q-32.15 8.72-33.91 8.07Q-35.68 7.43-37.84 6.85L-37.84 6.85Q-40.07 6.20-42.41 5.41Q-44.75 4.62-46.69 3.36Q-48.64 2.10-49.86 0.01Q-51.08-2.08-51.08-5.25L-51.08-5.25Q-51.08-8.85-49.07-11.37Q-47.05-13.89-43.85-15.25Q-40.64-16.62-37.12-16.62L-37.12-16.62Q-34.88-16.62-32.44-16.08Q-29.99-15.54-27.76-14.35Q-25.52-13.17-24.01-11.22L-24.01-11.22Q-23.22-10.14-23.08-8.63Q-22.93-7.12-24.44-5.89L-24.44-5.89Q-25.52-5.03-26.96-5.14Q-28.40-5.25-29.34-6.11L-29.34-6.11Q-30.56-7.69-32.62-8.63Q-34.67-9.57-37.33-9.57L-37.33-9.57Q-38.41-9.57-39.67-9.31Q-40.93-9.06-41.87-8.23Q-42.80-7.41-42.80-5.61L-42.80-5.61Q-42.80-3.95-41.72-2.98Q-40.64-2.01-38.81-1.39Q-36.97-0.78-34.88-0.21L-34.88-0.21Q-32.72 0.37-30.49 1.16Q-28.26 1.95-26.39 3.25Q-24.52 4.55-23.36 6.60Q-22.21 8.65-22.21 11.82L-22.21 11.82Q-22.21 15.49-24.37 18.08Q-26.53 20.67-29.77 22.01Q-33.01 23.34-36.40 23.34L-36.40 23.34Q-40.64 23.34-44.89 21.86Q-49.14 20.39-51.95 16.64ZM-14.58-15.18L-14.58-15.18L2.48-15.18Q4.21-15.18 5.36-14.03Q6.52-12.88 6.52-11.15L6.52-11.15Q6.52-9.49 5.36-8.38Q4.21-7.26 2.48-7.26L2.48-7.26L-14.58-7.26Q-16.31-7.26-17.46-8.41Q-18.61-9.57-18.61-11.29L-18.61-11.29Q-18.61-12.95-17.46-14.07Q-16.31-15.18-14.58-15.18ZM-6.88-24.18L-6.88-24.18Q-5.00-24.18-3.82-22.92Q-2.63-21.66-2.63-19.79L-2.63-19.79L-2.63 12.25Q-2.63 13.26-2.23 13.91Q-1.84 14.55-1.15 14.84Q-0.47 15.13 0.32 15.13L0.32 15.13Q1.19 15.13 1.91 14.81Q2.63 14.48 3.56 14.48L3.56 14.48Q4.57 14.48 5.40 15.42Q6.23 16.35 6.23 18.01L6.23 18.01Q6.23 20.03 4.03 21.32Q1.84 22.62-0.68 22.62L-0.68 22.62Q-2.20 22.62-4.03 22.37Q-5.87 22.11-7.49 21.14Q-9.11 20.17-10.19 18.15Q-11.27 16.14-11.27 12.61L-11.27 12.61L-11.27-19.79Q-11.27-21.66-10.01-22.92Q-8.75-24.18-6.88-24.18ZM45.61-16.62L45.61-16.62Q47.48-16.62 48.71-15.40Q49.93-14.17 49.93-12.23L49.93-12.23L49.93 18.23Q49.93 20.10 48.71 21.36Q47.48 22.62 45.61 22.62L45.61 22.62Q43.74 22.62 42.52 21.36Q41.29 20.10 41.29 18.23L41.29 18.23L41.29 14.70L42.88 15.35Q42.88 16.28 41.87 17.61Q40.86 18.95 39.13 20.24Q37.40 21.54 35.06 22.44Q32.72 23.34 29.99 23.34L29.99 23.34Q25.02 23.34 20.99 20.78Q16.96 18.23 14.62 13.73Q12.28 9.23 12.28 3.39L12.28 3.39Q12.28-2.51 14.62-7.01Q16.96-11.51 20.92-14.07Q24.88-16.62 29.70-16.62L29.70-16.62Q32.80-16.62 35.39-15.69Q37.98-14.75 39.89-13.31Q41.80-11.87 42.84-10.39Q43.88-8.92 43.88-7.91L43.88-7.91L41.29-6.97L41.29-12.23Q41.29-14.10 42.52-15.36Q43.74-16.62 45.61-16.62ZM31.07 15.42L31.07 15.42Q34.24 15.42 36.61 13.83Q38.99 12.25 40.32 9.51Q41.65 6.78 41.65 3.39L41.65 3.39Q41.65-0.06 40.32-2.80Q38.99-5.53 36.61-7.12Q34.24-8.70 31.07-8.70L31.07-8.70Q27.97-8.70 25.60-7.12Q23.22-5.53 21.89-2.80Q20.56-0.06 20.56 3.39L20.56 3.39Q20.56 6.78 21.89 9.51Q23.22 12.25 25.60 13.83Q27.97 15.42 31.07 15.42ZM57.06 16.64L57.06 16.64Q56.34 15.63 56.41 14.05Q56.48 12.47 58.28 11.31L58.28 11.31Q59.44 10.59 60.73 10.70Q62.03 10.81 63.25 12.03L63.25 12.03Q65.34 14.12 67.64 15.27Q69.95 16.43 73.40 16.43L73.40 16.43Q74.48 16.35 75.78 16.10Q77.08 15.85 78.05 14.95Q79.02 14.05 79.02 12.18L79.02 12.18Q79.02 10.59 77.94 9.66Q76.86 8.72 75.10 8.07Q73.33 7.43 71.17 6.85L71.17 6.85Q68.94 6.20 66.60 5.41Q64.26 4.62 62.32 3.36Q60.37 2.10 59.15 0.01Q57.92-2.08 57.92-5.25L57.92-5.25Q57.92-8.85 59.94-11.37Q61.96-13.89 65.16-15.25Q68.36-16.62 71.89-16.62L71.89-16.62Q74.12-16.62 76.57-16.08Q79.02-15.54 81.25-14.35Q83.48-13.17 85.00-11.22L85.00-11.22Q85.79-10.14 85.93-8.63Q86.08-7.12 84.56-5.89L84.56-5.89Q83.48-5.03 82.04-5.14Q80.60-5.25 79.67-6.11L79.67-6.11Q78.44-7.69 76.39-8.63Q74.34-9.57 71.68-9.57L71.68-9.57Q70.60-9.57 69.34-9.31Q68.08-9.06 67.14-8.23Q66.20-7.41 66.20-5.61L66.20-5.61Q66.20-3.95 67.28-2.98Q68.36-2.01 70.20-1.39Q72.04-0.78 74.12-0.21L74.12-0.21Q76.28 0.37 78.52 1.16Q80.75 1.95 82.62 3.25Q84.49 4.55 85.64 6.60Q86.80 8.65 86.80 11.82L86.80 11.82Q86.80 15.49 84.64 18.08Q82.48 20.67 79.24 22.01Q76.00 23.34 72.61 23.34L72.61 23.34Q68.36 23.34 64.12 21.86Q59.87 20.39 57.06 16.64ZM102.13-11.51L102.13 18.23Q102.13 20.10 100.91 21.36Q99.68 22.62 97.81 22.62L97.81 22.62Q95.94 22.62 94.72 21.36Q93.49 20.10 93.49 18.23L93.49 18.23L93.49-11.51Q93.49-13.38 94.72-14.64Q95.94-15.90 97.81-15.90L97.81-15.90Q99.68-15.90 100.91-14.64Q102.13-13.38 102.13-11.51L102.13-11.51ZM97.74-20.58L97.74-20.58Q95.29-20.58 94.28-21.37Q93.28-22.17 93.28-24.18L93.28-24.18L93.28-25.55Q93.28-27.64 94.39-28.39Q95.51-29.15 97.81-29.15L97.81-29.15Q100.33-29.15 101.34-28.36Q102.35-27.57 102.35-25.55L102.35-25.55L102.35-24.18Q102.35-22.09 101.27-21.34Q100.19-20.58 97.74-20.58ZM148.00 3.39L148.00 3.39Q148.00 9.30 145.37 13.80Q142.74 18.30 138.31 20.82Q133.88 23.34 128.41 23.34L128.41 23.34Q122.94 23.34 118.51 20.82Q114.08 18.30 111.46 13.80Q108.83 9.30 108.83 3.39L108.83 3.39Q108.83-2.51 111.46-7.01Q114.08-11.51 118.51-14.07Q122.94-16.62 128.41-16.62L128.41-16.62Q133.88-16.62 138.31-14.07Q142.74-11.51 145.37-7.01Q148.00-2.51 148.00 3.39ZM139.36 3.39L139.36 3.39Q139.36-0.28 137.88-2.98Q136.40-5.68 133.92-7.19Q131.44-8.70 128.41-8.70L128.41-8.70Q125.39-8.70 122.90-7.19Q120.42-5.68 118.94-2.98Q117.47-0.28 117.47 3.39L117.47 3.39Q117.47 6.99 118.94 9.69Q120.42 12.39 122.90 13.91Q125.39 15.42 128.41 15.42L128.41 15.42Q131.44 15.42 133.92 13.91Q136.40 12.39 137.88 9.69Q139.36 6.99 139.36 3.39ZM152.96 16.64L152.96 16.64Q152.24 15.63 152.32 14.05Q152.39 12.47 154.19 11.31L154.19 11.31Q155.34 10.59 156.64 10.70Q157.93 10.81 159.16 12.03L159.16 12.03Q161.24 14.12 163.55 15.27Q165.85 16.43 169.31 16.43L169.31 16.43Q170.39 16.35 171.68 16.10Q172.98 15.85 173.95 14.95Q174.92 14.05 174.92 12.18L174.92 12.18Q174.92 10.59 173.84 9.66Q172.76 8.72 171.00 8.07Q169.24 7.43 167.08 6.85L167.08 6.85Q164.84 6.20 162.50 5.41Q160.16 4.62 158.22 3.36Q156.28 2.10 155.05 0.01Q153.83-2.08 153.83-5.25L153.83-5.25Q153.83-8.85 155.84-11.37Q157.86-13.89 161.06-15.25Q164.27-16.62 167.80-16.62L167.80-16.62Q170.03-16.62 172.48-16.08Q174.92-15.54 177.16-14.35Q179.39-13.17 180.90-11.22L180.90-11.22Q181.69-10.14 181.84-8.63Q181.98-7.12 180.47-5.89L180.47-5.89Q179.39-5.03 177.95-5.14Q176.51-5.25 175.57-6.11L175.57-6.11Q174.35-7.69 172.30-8.63Q170.24-9.57 167.58-9.57L167.58-9.57Q166.50-9.57 165.24-9.31Q163.98-9.06 163.04-8.23Q162.11-7.41 162.11-5.61L162.11-5.61Q162.11-3.95 163.19-2.98Q164.27-2.01 166.10-1.39Q167.94-0.78 170.03-0.21L170.03-0.21Q172.19 0.37 174.42 1.16Q176.65 1.95 178.52 3.25Q180.40 4.55 181.55 6.60Q182.70 8.65 182.70 11.82L182.70 11.82Q182.70 15.49 180.54 18.08Q178.38 20.67 175.14 22.01Q171.90 23.34 168.52 23.34L168.52 23.34Q164.27 23.34 160.02 21.86Q155.77 20.39 152.96 16.64Z"/></g>
<g transform="matrix(1 0 0 1 548.4873 532.5)" style="" id="897108">
		
<path xml:space="preserve" font-family="Quicksand" font-size="40" font-weight="bold" style="stroke: none; stroke-width: 0; stroke-dasharray: none; stroke-linecap: butt; stroke-dashoffset: 0; stroke-linejoin: miter; stroke-miterlimit: 4; is-custom-font: none; font-file-url: none; fill: rgb(22,22,22); fill-rule: nonzero; opacity: 1; white-space: pre;" d="M-146.48-9.23L-146.48-9.23Q-144.80-9.23-143.40-8.71Q-142-8.19-140.98-7.39Q-139.96-6.59-139.38-5.77Q-138.80-4.95-138.80-4.39L-138.80-4.39L-139.84-3.87L-139.84-6.79Q-139.84-7.83-139.16-8.53Q-138.48-9.23-137.44-9.23L-137.44-9.23Q-136.40-9.23-135.72-8.55Q-135.04-7.87-135.04-6.79L-135.04-6.79L-135.04 11.01Q-135.04 14.49-136.54 16.59Q-138.04 18.69-140.48 19.63Q-142.92 20.57-145.72 20.57L-145.72 20.57Q-146.52 20.57-147.80 20.37Q-149.08 20.17-150.24 19.89Q-151.40 19.61-152 19.37L-152 19.37Q-153.20 18.85-153.66 18.07Q-154.12 17.29-153.84 16.41L-153.84 16.41Q-153.48 15.25-152.68 14.83Q-151.88 14.41-151 14.73L-151 14.73Q-150.60 14.85-149.68 15.21Q-148.76 15.57-147.66 15.87Q-146.56 16.17-145.72 16.17L-145.72 16.17Q-142.72 16.17-141.28 14.97Q-139.84 13.77-139.84 11.65L-139.84 11.65L-139.84 8.17L-139.36 8.53Q-139.36 9.05-139.90 9.79Q-140.44 10.53-141.38 11.25Q-142.32 11.97-143.60 12.47Q-144.88 12.97-146.32 12.97L-146.32 12.97Q-149.16 12.97-151.44 11.55Q-153.72 10.13-155.04 7.63Q-156.36 5.13-156.36 1.89L-156.36 1.89Q-156.36-1.39-155.04-3.89Q-153.72-6.39-151.48-7.81Q-149.24-9.23-146.48-9.23ZM-145.72-4.83L-145.72-4.83Q-147.52-4.83-148.88-3.95Q-150.24-3.07-151-1.55Q-151.76-0.03-151.76 1.89L-151.76 1.89Q-151.76 3.77-151 5.29Q-150.24 6.81-148.88 7.69Q-147.52 8.57-145.72 8.57L-145.72 8.57Q-143.88 8.57-142.52 7.69Q-141.16 6.81-140.40 5.29Q-139.64 3.77-139.64 1.89L-139.64 1.89Q-139.64-0.03-140.40-1.55Q-141.16-3.07-142.52-3.95Q-143.88-4.83-145.72-4.83ZM-120.76 12.97L-120.76 12.97Q-124.16 12.97-126.66 11.55Q-129.16 10.13-130.50 7.69Q-131.84 5.25-131.84 2.17L-131.84 2.17Q-131.84-1.43-130.38-3.97Q-128.92-6.51-126.56-7.87Q-124.20-9.23-121.56-9.23L-121.56-9.23Q-119.52-9.23-117.70-8.39Q-115.88-7.55-114.48-6.09Q-113.08-4.63-112.26-2.71Q-111.44-0.79-111.44 1.37L-111.44 1.37Q-111.48 2.33-112.20 2.93Q-112.92 3.53-113.88 3.53L-113.88 3.53L-129.16 3.53L-130.36-0.47L-115.68-0.47L-116.56 0.33L-116.56-0.75Q-116.64-1.91-117.38-2.83Q-118.12-3.75-119.22-4.29Q-120.32-4.83-121.56-4.83L-121.56-4.83Q-122.76-4.83-123.80-4.51Q-124.84-4.19-125.60-3.43Q-126.36-2.67-126.80-1.39Q-127.24-0.11-127.24 1.85L-127.24 1.85Q-127.24 4.01-126.34 5.51Q-125.44 7.01-124.02 7.79Q-122.60 8.57-121.00 8.57L-121.00 8.57Q-119.52 8.57-118.64 8.33Q-117.76 8.09-117.22 7.75Q-116.68 7.41-116.24 7.17L-116.24 7.17Q-115.52 6.81-114.88 6.81L-114.88 6.81Q-114 6.81-113.42 7.41Q-112.84 8.01-112.84 8.81L-112.84 8.81Q-112.84 9.89-113.96 10.77L-113.96 10.77Q-115 11.65-116.88 12.31Q-118.76 12.97-120.76 12.97ZM-86.88 1.89L-86.88 1.89Q-86.88 5.17-88.34 7.67Q-89.80 10.17-92.26 11.57Q-94.72 12.97-97.76 12.97L-97.76 12.97Q-100.80 12.97-103.26 11.57Q-105.72 10.17-107.18 7.67Q-108.64 5.17-108.64 1.89L-108.64 1.89Q-108.64-1.39-107.18-3.89Q-105.72-6.39-103.26-7.81Q-100.80-9.23-97.76-9.23L-97.76-9.23Q-94.72-9.23-92.26-7.81Q-89.80-6.39-88.34-3.89Q-86.88-1.39-86.88 1.89ZM-91.68 1.89L-91.68 1.89Q-91.68-0.15-92.50-1.65Q-93.32-3.15-94.70-3.99Q-96.08-4.83-97.76-4.83L-97.76-4.83Q-99.44-4.83-100.82-3.99Q-102.20-3.15-103.02-1.65Q-103.84-0.15-103.84 1.89L-103.84 1.89Q-103.84 3.89-103.02 5.39Q-102.20 6.89-100.82 7.73Q-99.44 8.57-97.76 8.57L-97.76 8.57Q-96.08 8.57-94.70 7.73Q-93.32 6.89-92.50 5.39Q-91.68 3.89-91.68 1.89ZM-80.48 12.57L-80.48 12.57Q-81.52 12.57-82.20 11.87Q-82.88 11.17-82.88 10.13L-82.88 10.13L-82.88-6.39Q-82.88-7.43-82.20-8.13Q-81.52-8.83-80.48-8.83L-80.48-8.83Q-79.44-8.83-78.76-8.13Q-78.08-7.43-78.08-6.39L-78.08-6.39L-78.08-2.63L-78.36-5.31Q-77.92-6.27-77.22-7.01Q-76.52-7.75-75.64-8.25Q-74.76-8.75-73.76-8.99Q-72.76-9.23-71.76-9.23L-71.76-9.23Q-70.56-9.23-69.74-8.55Q-68.92-7.87-68.92-6.95L-68.92-6.95Q-68.92-5.63-69.60-5.05Q-70.28-4.47-71.08-4.47L-71.08-4.47Q-71.84-4.47-72.46-4.75Q-73.08-5.03-73.88-5.03L-73.88-5.03Q-74.60-5.03-75.34-4.69Q-76.08-4.35-76.70-3.63Q-77.32-2.91-77.70-1.85Q-78.08-0.79-78.08 0.65L-78.08 0.65L-78.08 10.13Q-78.08 11.17-78.76 11.87Q-79.44 12.57-80.48 12.57ZM-57.44-9.23L-57.44-9.23Q-55.76-9.23-54.36-8.71Q-52.96-8.19-51.94-7.39Q-50.92-6.59-50.34-5.77Q-49.76-4.95-49.76-4.39L-49.76-4.39L-50.80-3.87L-50.80-6.79Q-50.80-7.83-50.12-8.53Q-49.44-9.23-48.40-9.23L-48.40-9.23Q-47.36-9.23-46.68-8.55Q-46-7.87-46-6.79L-46-6.79L-46 11.01Q-46 14.49-47.50 16.59Q-49 18.69-51.44 19.63Q-53.88 20.57-56.68 20.57L-56.68 20.57Q-57.48 20.57-58.76 20.37Q-60.04 20.17-61.20 19.89Q-62.36 19.61-62.96 19.37L-62.96 19.37Q-64.16 18.85-64.62 18.07Q-65.08 17.29-64.80 16.41L-64.80 16.41Q-64.44 15.25-63.64 14.83Q-62.84 14.41-61.96 14.73L-61.96 14.73Q-61.56 14.85-60.64 15.21Q-59.72 15.57-58.62 15.87Q-57.52 16.17-56.68 16.17L-56.68 16.17Q-53.68 16.17-52.24 14.97Q-50.80 13.77-50.80 11.65L-50.80 11.65L-50.80 8.17L-50.32 8.53Q-50.32 9.05-50.86 9.79Q-51.40 10.53-52.34 11.25Q-53.28 11.97-54.56 12.47Q-55.84 12.97-57.28 12.97L-57.28 12.97Q-60.12 12.97-62.40 11.55Q-64.68 10.13-66 7.63Q-67.32 5.13-67.32 1.89L-67.32 1.89Q-67.32-1.39-66-3.89Q-64.68-6.39-62.44-7.81Q-60.20-9.23-57.44-9.23ZM-56.68-4.83L-56.68-4.83Q-58.48-4.83-59.84-3.95Q-61.20-3.07-61.96-1.55Q-62.72-0.03-62.72 1.89L-62.72 1.89Q-62.72 3.77-61.96 5.29Q-61.20 6.81-59.84 7.69Q-58.48 8.57-56.68 8.57L-56.68 8.57Q-54.84 8.57-53.48 7.69Q-52.12 6.81-51.36 5.29Q-50.60 3.77-50.60 1.89L-50.60 1.89Q-50.60-0.03-51.36-1.55Q-52.12-3.07-53.48-3.95Q-54.84-4.83-56.68-4.83ZM-23.68-9.23L-23.68-9.23Q-22.64-9.23-21.96-8.55Q-21.28-7.87-21.28-6.79L-21.28-6.79L-21.28 10.13Q-21.28 11.17-21.96 11.87Q-22.64 12.57-23.68 12.57L-23.68 12.57Q-24.72 12.57-25.40 11.87Q-26.08 11.17-26.08 10.13L-26.08 10.13L-26.08 8.17L-25.20 8.53Q-25.20 9.05-25.76 9.79Q-26.32 10.53-27.28 11.25Q-28.24 11.97-29.54 12.47Q-30.84 12.97-32.36 12.97L-32.36 12.97Q-35.12 12.97-37.36 11.55Q-39.60 10.13-40.90 7.63Q-42.20 5.13-42.20 1.89L-42.20 1.89Q-42.20-1.39-40.90-3.89Q-39.60-6.39-37.40-7.81Q-35.20-9.23-32.52-9.23L-32.52-9.23Q-30.80-9.23-29.36-8.71Q-27.92-8.19-26.86-7.39Q-25.80-6.59-25.22-5.77Q-24.64-4.95-24.64-4.39L-24.64-4.39L-26.08-3.87L-26.08-6.79Q-26.08-7.83-25.40-8.53Q-24.72-9.23-23.68-9.23ZM-31.76 8.57L-31.76 8.57Q-30 8.57-28.68 7.69Q-27.36 6.81-26.62 5.29Q-25.88 3.77-25.88 1.89L-25.88 1.89Q-25.88-0.03-26.62-1.55Q-27.36-3.07-28.68-3.95Q-30-4.83-31.76-4.83L-31.76-4.83Q-33.48-4.83-34.80-3.95Q-36.12-3.07-36.86-1.55Q-37.60-0.03-37.60 1.89L-37.60 1.89Q-37.60 3.77-36.86 5.29Q-36.12 6.81-34.80 7.69Q-33.48 8.57-31.76 8.57ZM-13.28 12.57L-13.28 12.57Q-14.32 12.57-15 11.87Q-15.68 11.17-15.68 10.13L-15.68 10.13L-15.68-14.59Q-15.68-15.63-15-16.33Q-14.32-17.03-13.28-17.03L-13.28-17.03Q-12.24-17.03-11.56-16.33Q-10.88-15.63-10.88-14.59L-10.88-14.59L-10.88 10.13Q-10.88 11.17-11.56 11.87Q-12.24 12.57-13.28 12.57ZM-0.56-8.83L-0.56-8.83Q0.36-8.83 1.04-8.07Q1.72-7.31 1.72-6.59L1.72-6.59Q1.72-5.63 0.76-4.79L0.76-4.79L-11.28 6.29L-11.48 0.77L-2.32-8.07Q-1.56-8.83-0.56-8.83ZM0.04 12.53L0.04 12.53Q-1 12.53-1.72 11.73L-1.72 11.73L-9.12 3.89L-5.48 0.53L1.72 8.37Q2.48 9.17 2.48 10.17L2.48 10.17Q2.48 11.21 1.66 11.87Q0.84 12.53 0.04 12.53ZM26.36 1.89L26.36 1.89Q26.36 5.17 24.90 7.67Q23.44 10.17 20.98 11.57Q18.52 12.97 15.48 12.97L15.48 12.97Q12.44 12.97 9.98 11.57Q7.52 10.17 6.06 7.67Q4.60 5.17 4.60 1.89L4.60 1.89Q4.60-1.39 6.06-3.89Q7.52-6.39 9.98-7.81Q12.44-9.23 15.48-9.23L15.48-9.23Q18.52-9.23 20.98-7.81Q23.44-6.39 24.90-3.89Q26.36-1.39 26.36 1.89ZM21.56 1.89L21.56 1.89Q21.56-0.15 20.74-1.65Q19.92-3.15 18.54-3.99Q17.16-4.83 15.48-4.83L15.48-4.83Q13.80-4.83 12.42-3.99Q11.04-3.15 10.22-1.65Q9.40-0.15 9.40 1.89L9.40 1.89Q9.40 3.89 10.22 5.39Q11.04 6.89 12.42 7.73Q13.80 8.57 15.48 8.57L15.48 8.57Q17.16 8.57 18.54 7.73Q19.92 6.89 20.74 5.39Q21.56 3.89 21.56 1.89ZM41.44-9.23L41.44-9.23Q44.24-9.23 46.46-7.81Q48.68-6.39 49.98-3.91Q51.28-1.43 51.28 1.85L51.28 1.85Q51.28 5.13 49.98 7.63Q48.68 10.13 46.50 11.55Q44.32 12.97 41.60 12.97L41.60 12.97Q40.00 12.97 38.60 12.45Q37.20 11.93 36.14 11.13Q35.08 10.33 34.50 9.51Q33.92 8.69 33.92 8.13L33.92 8.13L35.16 7.61L35.16 18.13Q35.16 19.17 34.48 19.87Q33.80 20.57 32.76 20.57L32.76 20.57Q31.72 20.57 31.04 19.89Q30.36 19.21 30.36 18.13L30.36 18.13L30.36-6.39Q30.36-7.43 31.04-8.13Q31.72-8.83 32.76-8.83L32.76-8.83Q33.80-8.83 34.48-8.13Q35.16-7.43 35.16-6.39L35.16-6.39L35.16-4.43L34.48-4.79Q34.48-5.31 35.04-6.05Q35.60-6.79 36.56-7.53Q37.52-8.27 38.78-8.75Q40.04-9.23 41.44-9.23ZM40.84-4.83L40.84-4.83Q39.08-4.83 37.76-3.95Q36.44-3.07 35.70-1.57Q34.96-0.07 34.96 1.85L34.96 1.85Q34.96 3.73 35.70 5.27Q36.44 6.81 37.76 7.69Q39.08 8.57 40.84 8.57L40.84 8.57Q42.60 8.57 43.90 7.69Q45.20 6.81 45.94 5.27Q46.68 3.73 46.68 1.85L46.68 1.85Q46.68-0.07 45.94-1.57Q45.20-3.07 43.90-3.95Q42.60-4.83 40.84-4.83ZM75.84 1.89L75.84 1.89Q75.84 5.17 74.38 7.67Q72.92 10.17 70.46 11.57Q68 12.97 64.96 12.97L64.96 12.97Q61.92 12.97 59.46 11.57Q57.00 10.17 55.54 7.67Q54.08 5.17 54.08 1.89L54.08 1.89Q54.08-1.39 55.54-3.89Q57.00-6.39 59.46-7.81Q61.92-9.23 64.96-9.23L64.96-9.23Q68-9.23 70.46-7.81Q72.92-6.39 74.38-3.89Q75.84-1.39 75.84 1.89ZM71.04 1.89L71.04 1.89Q71.04-0.15 70.22-1.65Q69.40-3.15 68.02-3.99Q66.64-4.83 64.96-4.83L64.96-4.83Q63.28-4.83 61.90-3.99Q60.52-3.15 59.70-1.65Q58.88-0.15 58.88 1.89L58.88 1.89Q58.88 3.89 59.70 5.39Q60.52 6.89 61.90 7.73Q63.28 8.57 64.96 8.57L64.96 8.57Q66.64 8.57 68.02 7.73Q69.40 6.89 70.22 5.39Q71.04 3.89 71.04 1.89ZM95.72-8.83L95.72-8.83Q96.76-8.83 97.44-8.13Q98.12-7.43 98.12-6.39L98.12-6.39L98.12 3.77Q98.12 8.01 95.76 10.49Q93.40 12.97 88.96 12.97L88.96 12.97Q84.52 12.97 82.18 10.49Q79.84 8.01 79.84 3.77L79.84 3.77L79.84-6.39Q79.84-7.43 80.52-8.13Q81.20-8.83 82.24-8.83L82.24-8.83Q83.28-8.83 83.96-8.13Q84.64-7.43 84.64-6.39L84.64-6.39L84.64 3.77Q84.64 6.21 85.72 7.39Q86.80 8.57 88.96 8.57L88.96 8.57Q91.16 8.57 92.24 7.39Q93.32 6.21 93.32 3.77L93.32 3.77L93.32-6.39Q93.32-7.43 94.00-8.13Q94.68-8.83 95.72-8.83ZM108.52-14.59L108.52 10.13Q108.52 11.17 107.82 11.87Q107.12 12.57 106.08 12.57L106.08 12.57Q105.08 12.57 104.40 11.87Q103.72 11.17 103.72 10.13L103.72 10.13L103.72-14.59Q103.72-15.63 104.42-16.33Q105.12-17.03 106.16-17.03L106.16-17.03Q107.20-17.03 107.86-16.33Q108.52-15.63 108.52-14.59L108.52-14.59ZM134.28 1.89L134.28 1.89Q134.28 5.17 132.82 7.67Q131.36 10.17 128.90 11.57Q126.44 12.97 123.40 12.97L123.40 12.97Q120.36 12.97 117.90 11.57Q115.44 10.17 113.98 7.67Q112.52 5.17 112.52 1.89L112.52 1.89Q112.52-1.39 113.98-3.89Q115.44-6.39 117.90-7.81Q120.36-9.23 123.40-9.23L123.40-9.23Q126.44-9.23 128.90-7.81Q131.36-6.39 132.82-3.89Q134.28-1.39 134.28 1.89ZM129.48 1.89L129.48 1.89Q129.48-0.15 128.66-1.65Q127.84-3.15 126.46-3.99Q125.08-4.83 123.40-4.83L123.40-4.83Q121.72-4.83 120.34-3.99Q118.96-3.15 118.14-1.65Q117.32-0.15 117.32 1.89L117.32 1.89Q117.32 3.89 118.14 5.39Q118.96 6.89 120.34 7.73Q121.72 8.57 123.40 8.57L123.40 8.57Q125.08 8.57 126.46 7.73Q127.84 6.89 128.66 5.39Q129.48 3.89 129.48 1.89ZM137.04 9.25L137.04 9.25Q136.64 8.69 136.68 7.81Q136.72 6.93 137.72 6.29L137.72 6.29Q138.36 5.89 139.08 5.95Q139.80 6.01 140.48 6.69L140.48 6.69Q141.64 7.85 142.92 8.49Q144.20 9.13 146.12 9.13L146.12 9.13Q146.72 9.09 147.44 8.95Q148.16 8.81 148.70 8.31Q149.24 7.81 149.24 6.77L149.24 6.77Q149.24 5.89 148.64 5.37Q148.04 4.85 147.06 4.49Q146.08 4.13 144.88 3.81L144.88 3.81Q143.64 3.45 142.34 3.01Q141.04 2.57 139.96 1.87Q138.88 1.17 138.20 0.01Q137.52-1.15 137.52-2.91L137.52-2.91Q137.52-4.91 138.64-6.31Q139.76-7.71 141.54-8.47Q143.32-9.23 145.28-9.23L145.28-9.23Q146.52-9.23 147.88-8.93Q149.24-8.63 150.48-7.97Q151.72-7.31 152.56-6.23L152.56-6.23Q153-5.63 153.08-4.79Q153.16-3.95 152.32-3.27L152.32-3.27Q151.72-2.79 150.92-2.85Q150.12-2.91 149.60-3.39L149.60-3.39Q148.92-4.27 147.78-4.79Q146.64-5.31 145.16-5.31L145.16-5.31Q144.56-5.31 143.86-5.17Q143.16-5.03 142.64-4.57Q142.12-4.11 142.12-3.11L142.12-3.11Q142.12-2.19 142.72-1.65Q143.32-1.11 144.34-0.77Q145.36-0.43 146.52-0.11L146.52-0.11Q147.72 0.21 148.96 0.65Q150.20 1.09 151.24 1.81Q152.28 2.53 152.92 3.67Q153.56 4.81 153.56 6.57L153.56 6.57Q153.56 8.61 152.36 10.05Q151.16 11.49 149.36 12.23Q147.56 12.97 145.68 12.97L145.68 12.97Q143.32 12.97 140.96 12.15Q138.60 11.33 137.04 9.25Z"/></g>
</svg>